<svg width="22" height="20" viewBox="0 0 22 20" fill="none" xmlns="http://www.w3.org/2000/svg">
<path d="M2.16104 2.46901C3.32111 1.30874 4.87704 0.630098 6.51664 0.569262C8.15624 0.508427 9.75819 1.0699 11.001 2.14101C12.2428 1.07168 13.8426 0.510843 15.4803 0.570774C17.1179 0.630705 18.6724 1.30698 19.8327 2.46422C20.993 3.62145 21.6733 5.17424 21.7375 6.8117C21.8018 8.44917 21.2451 10.0505 20.179 11.295L12.414 19.085C12.0573 19.4419 11.5788 19.6507 11.0746 19.6696C10.5703 19.6886 10.0775 19.5162 9.69504 19.187L9.58504 19.086L1.82104 11.295C0.755532 10.0515 0.198622 8.45172 0.261658 6.81539C0.324693 5.17907 1.00303 3.62683 2.16104 2.46901V2.46901ZM3.57504 3.88301C2.75728 4.701 2.2859 5.80246 2.25871 6.95878C2.23152 8.11511 2.65063 9.2375 3.42904 10.093L3.57504 10.247L11 17.672L16.303 12.368L12.768 8.83301L11.708 9.89301C11.4295 10.1717 11.0988 10.3928 10.7348 10.5436C10.3709 10.6945 9.98075 10.7722 9.58675 10.7723C8.79103 10.7725 8.02783 10.4565 7.46504 9.89401C6.90225 9.33149 6.58598 8.56844 6.58579 7.77272C6.5856 6.977 6.90152 6.2138 7.46404 5.65101L9.56604 3.54801C8.72951 2.88039 7.68245 2.5327 6.61273 2.56734C5.54301 2.60198 4.52063 3.01667 3.72904 3.73701L3.57504 3.88301V3.88301ZM12.061 6.71101C12.2486 6.52354 12.5029 6.41823 12.768 6.41823C13.0332 6.41823 13.2875 6.52354 13.475 6.71101L17.717 10.953L18.425 10.247C19.2565 9.41615 19.7299 8.29293 19.7439 7.11757C19.7579 5.94222 19.3115 4.80803 18.5001 3.95757C17.6887 3.1071 16.5767 2.60788 15.402 2.56667C14.2273 2.52545 13.0831 2.94551 12.214 3.73701L12.061 3.88301L8.87904 7.06501C8.70571 7.23823 8.60202 7.46905 8.58764 7.71368C8.57326 7.9583 8.6492 8.19968 8.80104 8.39201L8.87904 8.47901C9.05226 8.65234 9.28309 8.75604 9.52771 8.77042C9.77233 8.78479 10.0137 8.70886 10.206 8.55701L10.293 8.47901L12.061 6.71101V6.71101Z" fill="white"/>
</svg>
