<svg width="115" height="115" viewBox="0 0 115 115" fill="none" xmlns="http://www.w3.org/2000/svg">
<rect width="115" height="115" rx="29" fill="url(#paint0_linear_677_548)"/>
<path d="M15 71.4414V44.0096H15.4583C18.3433 44.0096 21.2292 43.9826 24.1132 44.0192C25.8704 44.0419 27.6129 44.245 29.2823 44.8212C30.9278 45.3886 32.4436 46.1627 33.7854 47.2541C35.3176 48.5006 36.5525 49.9668 37.4535 51.6702C38.1861 53.0544 38.6481 54.5303 38.8154 56.0889C39.0862 58.6081 38.7651 61.0236 37.6683 63.3502C36.7546 65.2889 35.4182 66.8919 33.7223 68.2509C32.3558 69.3458 30.8437 70.1931 29.1497 70.7249C27.6212 71.2042 26.0516 71.4597 24.4307 71.4475C21.4597 71.4248 18.4887 71.4414 15.5177 71.4414H15ZM20.7435 65.9714C22.0314 65.9714 23.2891 66.0193 24.5396 65.9549C25.3994 65.9104 26.272 65.7822 27.1016 65.5643C28.6777 65.1494 29.9683 64.2925 31.0651 63.1209C32.2808 61.823 32.9549 60.3062 33.1314 58.6186C33.3409 56.6198 32.9045 54.7273 31.6413 53.0649C30.5675 51.651 29.1945 50.6242 27.452 50.0209C26.1568 49.5728 24.8332 49.5415 23.4903 49.558C22.5811 49.5694 21.671 49.5598 20.7435 49.5598V65.9714Z" fill="white"/>
<path d="M50.8388 71.4458C45.7769 71.5356 41.4221 67.1139 41.566 61.4553C41.6363 58.7012 42.6741 56.3702 44.6162 54.5093C46.379 52.8204 48.5006 51.9603 50.8558 51.9688C53.5004 51.979 55.8014 53.0256 57.6329 55.0733C59.4361 57.0895 60.2726 59.5103 60.1432 62.2552C59.9186 67.0341 56.1247 71.5348 50.8388 71.4458ZM50.8744 57.1141C48.4578 56.9912 46.4105 59.2144 46.4275 61.7132C46.4445 64.3173 48.3366 66.2334 50.6595 66.3521C53.3113 66.4879 55.2413 64.2095 55.3028 61.8625C55.3699 59.2669 53.2708 57.0047 50.8744 57.1141Z" fill="white"/>
<path d="M76.7914 64.3764C78.2599 65.2992 79.7069 66.2145 81.1623 67.1187C81.3464 67.2332 81.3836 67.2951 81.2413 67.4775C80.3494 68.6141 79.201 69.4827 77.8915 70.1859C76.6873 70.8323 75.3694 71.2123 73.9996 71.365C72.5767 71.5236 71.1446 71.4642 69.7468 71.1038C68.1305 70.6881 66.6965 69.9781 65.4559 68.939C63.7243 67.4894 62.5683 65.7471 62.1741 63.6172C62.0559 62.9768 61.909 62.3245 61.9285 61.6823C61.9853 59.8238 62.4623 58.0485 63.5997 56.4809C64.9612 54.6037 66.8128 53.2576 69.1544 52.5154C70.5485 52.0735 72.003 51.8733 73.4713 52.0124C75.6643 52.2202 77.6916 52.8658 79.3702 54.2237C80.076 54.7938 80.7178 55.4299 81.4059 56.0518C79.8119 57.0891 78.297 58.0756 76.7821 59.0613C75.4141 57.4497 73.3755 56.6828 71.1557 57.2817C69.0158 57.8585 67.7669 59.5567 67.5744 61.1565C67.2666 63.7224 69.0243 65.5189 71.0264 66.1178C73.1105 66.7412 75.3592 66.139 76.7904 64.3772L76.7914 64.3764Z" fill="white"/>
<path d="M99.9997 71.4479H93.8018V53.6576C95.8488 53.0994 97.9071 52.5396 99.9997 51.9688V71.4479Z" fill="white"/>
<path d="M89.375 71.4479H84.0625V45.7547C85.8175 45.175 87.5804 44.5928 89.375 44V71.4479Z" fill="white"/>
<defs>
<linearGradient id="paint0_linear_677_548" x1="115" y1="103.155" x2="1.0151e-06" y2="11.8451" gradientUnits="userSpaceOnUse">
<stop stop-color="#FF8C42"/>
<stop offset="1" stop-color="#E74F10"/>
</linearGradient>
</defs>
</svg>
