<svg width="18" height="18" viewBox="0 0 18 18" fill="none" xmlns="http://www.w3.org/2000/svg">
<path d="M4.1069 5.7908C4.28036 6.42564 4.6577 6.98586 5.18081 7.38519C5.70392 7.78452 6.34379 8.00083 7.0019 8.0008H11.0019C12.1799 8.00089 13.3201 8.41683 14.2215 9.17531C15.1228 9.9338 15.7275 10.9861 15.9289 12.1468C16.6076 12.3682 17.1851 12.8244 17.5578 13.4333C17.9305 14.0422 18.0738 14.7641 17.9622 15.4692C17.8505 16.1743 17.4911 16.8165 16.9486 17.2805C16.406 17.7445 15.7158 17.9999 15.0019 18.0008C14.3034 18.0013 13.6267 17.7582 13.0883 17.3132C12.5499 16.8682 12.1837 16.2493 12.0528 15.5632C11.9218 14.8771 12.0344 14.1668 12.371 13.5549C12.7077 12.9429 13.2473 12.4675 13.8969 12.2108C13.7234 11.576 13.3461 11.0158 12.823 10.6164C12.2999 10.2171 11.66 10.0008 11.0019 10.0008H7.0019C5.91979 10.0024 4.86663 9.65135 4.0019 9.0008V12.1708C4.66939 12.4067 5.23199 12.871 5.59026 13.4816C5.94852 14.0922 6.07939 14.8098 5.95971 15.5076C5.84003 16.2054 5.47753 16.8383 4.93627 17.2947C4.39501 17.751 3.70985 18.0013 3.0019 18.0013C2.29395 18.0013 1.60879 17.751 1.06753 17.2947C0.526268 16.8383 0.163763 16.2054 0.0440879 15.5076C-0.0755874 14.8098 0.0552733 14.0922 0.413539 13.4816C0.771805 12.871 1.33441 12.4067 2.0019 12.1708V5.8308C1.33888 5.59671 0.779099 5.13724 0.420252 4.53257C0.0614041 3.9279 -0.0737288 3.21642 0.0384335 2.52229C0.150596 1.82816 0.502931 1.19545 1.03396 0.734567C1.56498 0.273687 2.24098 0.0139009 2.94399 0.000542082C3.647 -0.0128168 4.33238 0.2211 4.88053 0.661473C5.42868 1.10185 5.8048 1.72071 5.94325 2.41008C6.0817 3.09945 5.9737 3.81555 5.63808 4.43342C5.30247 5.05129 4.76055 5.53169 4.1069 5.7908V5.7908ZM3.0019 4.0008C3.26712 4.0008 3.52147 3.89545 3.70901 3.70791C3.89654 3.52037 4.0019 3.26602 4.0019 3.0008C4.0019 2.73559 3.89654 2.48123 3.70901 2.2937C3.52147 2.10616 3.26712 2.0008 3.0019 2.0008C2.73668 2.0008 2.48233 2.10616 2.29479 2.2937C2.10726 2.48123 2.0019 2.73559 2.0019 3.0008C2.0019 3.26602 2.10726 3.52037 2.29479 3.70791C2.48233 3.89545 2.73668 4.0008 3.0019 4.0008ZM3.0019 16.0008C3.26712 16.0008 3.52147 15.8954 3.70901 15.7079C3.89654 15.5204 4.0019 15.266 4.0019 15.0008C4.0019 14.7356 3.89654 14.4812 3.70901 14.2937C3.52147 14.1062 3.26712 14.0008 3.0019 14.0008C2.73668 14.0008 2.48233 14.1062 2.29479 14.2937C2.10726 14.4812 2.0019 14.7356 2.0019 15.0008C2.0019 15.266 2.10726 15.5204 2.29479 15.7079C2.48233 15.8954 2.73668 16.0008 3.0019 16.0008ZM15.0019 16.0008C15.2671 16.0008 15.5215 15.8954 15.709 15.7079C15.8965 15.5204 16.0019 15.266 16.0019 15.0008C16.0019 14.7356 15.8965 14.4812 15.709 14.2937C15.5215 14.1062 15.2671 14.0008 15.0019 14.0008C14.7367 14.0008 14.4823 14.1062 14.2948 14.2937C14.1073 14.4812 14.0019 14.7356 14.0019 15.0008C14.0019 15.266 14.1073 15.5204 14.2948 15.7079C14.4823 15.8954 14.7367 16.0008 15.0019 16.0008Z" fill="white"/>
</svg>
