<svg width="104" height="40" viewBox="0 0 104 40" fill="none" xmlns="http://www.w3.org/2000/svg">
<path d="M4 35.4926V4.51085H4.51758C7.77593 4.51085 11.0353 4.48033 14.2926 4.52168C16.2772 4.54727 18.2452 4.77667 20.1306 5.42743C21.9891 6.06835 23.701 6.94261 25.2165 8.17522C26.9469 9.58308 28.3416 11.239 29.3592 13.1628C30.1867 14.7262 30.7084 16.393 30.8974 18.1533C31.2032 20.9986 30.8406 23.7267 29.6019 26.3543C28.5699 28.5439 27.0606 30.3544 25.1452 31.8893C23.6018 33.1259 21.8941 34.0828 19.9808 34.6834C18.2545 35.2248 16.4818 35.5133 14.6511 35.4995C11.2957 35.4739 7.94019 35.4926 4.58473 35.4926H4ZM10.4868 29.3148C11.9413 29.3148 13.3618 29.3689 14.7741 29.2961C15.7452 29.2459 16.7307 29.1011 17.6677 28.855C19.4477 28.3864 20.9054 27.4186 22.1441 26.0954C23.5171 24.6295 24.2785 22.9164 24.4778 21.0104C24.7144 18.7529 24.2216 16.6155 22.7949 14.738C21.5821 13.1411 20.0314 11.9814 18.0634 11.3001C16.6006 10.794 15.1057 10.7586 13.5891 10.7773C12.5622 10.7901 11.5343 10.7793 10.4868 10.7793V29.3138V29.3148Z" fill="white"/>
<path d="M44.4768 35.4976C38.7598 35.5991 33.8414 30.6051 34.0039 24.2143C34.0833 21.1037 35.2554 18.4711 37.4489 16.3693C39.4398 14.4619 41.836 13.4905 44.496 13.5001C47.4828 13.5116 50.0816 14.6937 52.1501 17.0063C54.1866 19.2835 55.1314 22.0176 54.9853 25.1177C54.7316 30.515 50.4467 35.5991 44.4768 35.4985V35.4976ZM44.517 19.3113C41.7876 19.1724 39.4754 21.6833 39.4946 24.5055C39.5138 27.4466 41.6507 29.6107 44.2742 29.7448C47.2692 29.8981 49.449 27.3249 49.5184 24.6741C49.5942 21.7427 47.2235 19.1867 44.517 19.3103V19.3113Z" fill="white"/>
<path d="M73.7883 27.5133C75.4468 28.5556 77.0811 29.5893 78.7248 30.6105C78.9328 30.7399 78.9748 30.8098 78.8141 31.0158C77.8068 32.2995 76.5097 33.2805 75.0308 34.0747C73.6707 34.8047 72.1823 35.2339 70.6352 35.4063C69.0282 35.5855 67.4107 35.5184 65.8321 35.1113C64.0066 34.6418 62.387 33.84 60.9859 32.6664C59.0302 31.0292 57.7246 29.0614 57.2793 26.6559C57.1459 25.9326 56.9799 25.1959 57.002 24.4706C57.0661 22.3716 57.6049 20.3665 58.8894 18.5961C60.4271 16.476 62.5183 14.9557 65.163 14.1174C66.7375 13.6183 68.3802 13.3922 70.0386 13.5493C72.5153 13.784 74.805 14.5131 76.7008 16.0468C77.498 16.6906 78.2228 17.4091 79 18.1114C77.1997 19.283 75.4888 20.3972 73.7778 21.5104C72.2328 19.6902 69.9304 18.8241 67.4233 19.5005C65.0065 20.1519 63.5959 22.0699 63.3785 23.8767C63.0309 26.7747 65.016 28.8037 67.2773 29.4801C69.6311 30.1842 72.1708 29.504 73.7872 27.5142L73.7883 27.5133Z" fill="white"/>
<path d="M100 35.5H93V15.4074C95.3119 14.777 97.6366 14.1447 100 13.5V35.5Z" fill="white"/>
<path d="M88 35.5H82V6.4818C83.9821 5.82711 85.9732 5.16946 88 4.5V35.5Z" fill="white"/>
</svg>
