<svg width="165" height="52" viewBox="0 0 165 52" fill="none" xmlns="http://www.w3.org/2000/svg">
<path fill-rule="evenodd" clip-rule="evenodd" d="M40.2561 15.6641V23.6994H30.165V21.4106L40.2561 15.6641Z" fill="#FF5821"/>
<path fill-rule="evenodd" clip-rule="evenodd" d="M40.2565 15.664L30.1654 21.4106L22.7246 17.1742V5.68115L40.2565 15.664Z" fill="#CD4100"/>
<path fill-rule="evenodd" clip-rule="evenodd" d="M22.7229 5.68115V17.1742L15.2845 21.4106L5.19336 15.664L22.7229 5.68115Z" fill="#FF5821"/>
<path fill-rule="evenodd" clip-rule="evenodd" d="M15.2845 21.4106V29.8828L5.19336 35.6289V15.6641L15.2845 21.4106Z" fill="#CD4100"/>
<path fill-rule="evenodd" clip-rule="evenodd" d="M22.7229 34.1191V45.6122L5.19336 35.6289L15.2845 29.8828L22.7229 34.1191Z" fill="#FF5821"/>
<path fill-rule="evenodd" clip-rule="evenodd" d="M40.2565 35.6289L22.7246 45.6122V34.1191L30.1654 29.8828L40.2565 35.6289Z" fill="#CD4100"/>
<path fill-rule="evenodd" clip-rule="evenodd" d="M40.2561 27.5942V35.6291L30.165 29.883V27.5942H40.2561Z" fill="#FF5821"/>
<path d="M57.3529 17.4178C59.1605 17.4178 60.711 17.745 62.0044 18.3995C63.2978 19.054 64.2873 19.9967 64.9729 21.2278C65.6586 22.4588 66.0014 23.9236 66.0014 25.6221C66.0014 27.3051 65.6586 28.7621 64.9729 29.9931C64.2873 31.2086 63.2978 32.1435 62.0044 32.798C60.711 33.4369 59.1605 33.7563 57.3529 33.7563H52.5145V17.4178H57.3529ZM57.3529 32.4006C59.628 32.4006 61.3577 31.8085 62.542 30.6242C63.7419 29.4243 64.3418 27.757 64.3418 25.6221C64.3418 23.4717 63.7419 21.7965 62.542 20.5967C61.3577 19.3812 59.628 18.7735 57.3529 18.7735H54.1507V32.4006H57.3529ZM74.6044 33.9433C73.4045 33.9433 72.3215 33.6784 71.3554 33.1486C70.4048 32.6032 69.6491 31.8397 69.0881 30.8579C68.5427 29.8606 68.27 28.6997 68.27 27.3752C68.27 26.0506 68.5505 24.8975 69.1115 23.9158C69.6724 22.9185 70.436 22.1549 71.4021 21.6251C72.3683 21.0797 73.4513 20.807 74.6512 20.807C75.851 20.807 76.934 21.0797 77.9002 21.6251C78.8819 22.1549 79.6454 22.9185 80.1908 23.9158C80.7518 24.8975 81.0323 26.0506 81.0323 27.3752C81.0323 28.6841 80.7518 29.8373 80.1908 30.8346C79.6299 31.8319 78.8585 32.6032 77.8768 33.1486C76.8951 33.6784 75.8043 33.9433 74.6044 33.9433ZM74.6044 32.5175C75.4459 32.5175 76.225 32.3305 76.9418 31.9565C77.6586 31.567 78.2352 30.9904 78.6715 30.2268C79.1234 29.4477 79.3494 28.4971 79.3494 27.3752C79.3494 26.2532 79.1312 25.3105 78.6949 24.5469C78.2586 23.7678 77.682 23.1912 76.9652 22.8172C76.2484 22.4276 75.4693 22.2328 74.6278 22.2328C73.7863 22.2328 73.0072 22.4276 72.2904 22.8172C71.5735 23.1912 70.997 23.7678 70.5607 24.5469C70.1399 25.3105 69.9296 26.2532 69.9296 27.3752C69.9296 28.4971 70.1399 29.4477 70.5607 30.2268C70.997 30.9904 71.5658 31.567 72.267 31.9565C72.9838 32.3305 73.7629 32.5175 74.6044 32.5175ZM83.2669 27.3752C83.2669 26.0506 83.5318 24.8975 84.0617 23.9158C84.5915 22.9185 85.3239 22.1549 86.2588 21.6251C87.1938 21.0797 88.2612 20.807 89.4611 20.807C91.035 20.807 92.3283 21.1966 93.3412 21.9757C94.3697 22.7549 95.032 23.8145 95.328 25.1546H93.575C93.3568 24.2352 92.8815 23.5184 92.1491 23.0042C91.4323 22.4744 90.5363 22.2095 89.4611 22.2095C88.6041 22.2095 87.8327 22.4043 87.1471 22.7938C86.4614 23.1834 85.916 23.7678 85.5109 24.5469C85.1213 25.3105 84.9265 26.2532 84.9265 27.3752C84.9265 28.4971 85.1213 29.4477 85.5109 30.2268C85.916 31.006 86.4614 31.5903 87.1471 31.9799C87.8327 32.3695 88.6041 32.5643 89.4611 32.5643C90.5363 32.5643 91.4323 32.3071 92.1491 31.7929C92.8815 31.2631 93.3568 30.5307 93.575 29.5957H95.328C95.032 30.9047 94.3697 31.9565 93.3412 32.7513C92.3128 33.546 91.0194 33.9433 89.4611 33.9433C88.2612 33.9433 87.1938 33.6784 86.2588 33.1486C85.3239 32.6032 84.5915 31.8397 84.0617 30.8579C83.5318 29.8606 83.2669 28.6997 83.2669 27.3752ZM99.9861 16.4594V33.7563H98.3499V16.4594H99.9861ZM104.509 18.5865C104.182 18.5865 103.902 18.4696 103.668 18.2359C103.434 18.0021 103.317 17.7138 103.317 17.371C103.317 17.0282 103.434 16.7477 103.668 16.5295C103.902 16.2958 104.182 16.1789 104.509 16.1789C104.837 16.1789 105.117 16.2958 105.351 16.5295C105.585 16.7477 105.701 17.0282 105.701 17.371C105.701 17.7138 105.585 18.0021 105.351 18.2359C105.117 18.4696 104.837 18.5865 104.509 18.5865ZM105.327 20.994V33.7563H103.691V20.994H105.327ZM109.313 33.8732C108.97 33.8732 108.682 33.7563 108.448 33.5226C108.23 33.2889 108.121 33.0006 108.121 32.6578C108.121 32.3149 108.23 32.0344 108.448 31.8163C108.682 31.5825 108.97 31.4657 109.313 31.4657C109.64 31.4657 109.913 31.5825 110.131 31.8163C110.365 32.0344 110.482 32.3149 110.482 32.6578C110.482 33.0006 110.365 33.2889 110.131 33.5226C109.913 33.7563 109.64 33.8732 109.313 33.8732ZM125.363 22.6302C125.363 23.5808 125.145 24.4534 124.708 25.2481C124.272 26.0273 123.602 26.6584 122.698 27.1414C121.794 27.6245 120.672 27.866 119.332 27.866H116.855V33.7563H112.858V17.3476H119.332C120.641 17.3476 121.748 17.5736 122.651 18.0255C123.555 18.4774 124.233 19.1007 124.685 19.8954C125.137 20.6901 125.363 21.6017 125.363 22.6302ZM119.028 24.6871C119.792 24.6871 120.361 24.5079 120.735 24.1495C121.109 23.7911 121.296 23.2847 121.296 22.6302C121.296 21.9757 121.109 21.4693 120.735 21.1109C120.361 20.7525 119.792 20.5733 119.028 20.5733H116.855V24.6871H119.028ZM129.454 19.3578C128.753 19.3578 128.176 19.1552 127.724 18.7501C127.288 18.3294 127.07 17.8151 127.07 17.2074C127.07 16.5841 127.288 16.0698 127.724 15.6647C128.176 15.244 128.753 15.0336 129.454 15.0336C130.14 15.0336 130.701 15.244 131.137 15.6647C131.589 16.0698 131.815 16.5841 131.815 17.2074C131.815 17.8151 131.589 18.3294 131.137 18.7501C130.701 19.1552 130.14 19.3578 129.454 19.3578ZM131.441 20.7135V33.7563H127.444V20.7135H131.441ZM138.334 16.4594V33.7563H134.337V16.4594H138.334ZM147.168 33.9433C145.89 33.9433 144.737 33.6706 143.709 33.1252C142.696 32.5798 141.893 31.8007 141.301 30.7878C140.724 29.7749 140.436 28.5906 140.436 27.2349C140.436 25.8948 140.732 24.7183 141.324 23.7054C141.916 22.677 142.727 21.89 143.755 21.3446C144.784 20.7992 145.937 20.5265 147.215 20.5265C148.492 20.5265 149.646 20.7992 150.674 21.3446C151.703 21.89 152.513 22.677 153.105 23.7054C153.697 24.7183 153.993 25.8948 153.993 27.2349C153.993 28.5751 153.689 29.7594 153.082 30.7878C152.489 31.8007 151.671 32.5798 150.627 33.1252C149.599 33.6706 148.446 33.9433 147.168 33.9433ZM147.168 30.484C147.931 30.484 148.578 30.2035 149.108 29.6425C149.653 29.0815 149.926 28.279 149.926 27.2349C149.926 26.1909 149.661 25.3884 149.131 24.8274C148.617 24.2664 147.978 23.9859 147.215 23.9859C146.436 23.9859 145.789 24.2664 145.275 24.8274C144.76 25.3728 144.503 26.1753 144.503 27.2349C144.503 28.279 144.753 29.0815 145.251 29.6425C145.765 30.2035 146.404 30.484 147.168 30.484ZM163.383 30.3671V33.7563H161.349C159.9 33.7563 158.771 33.4057 157.96 32.7045C157.15 31.9877 156.745 30.8268 156.745 29.2217V24.0327H155.155V20.7135H156.745V17.5346H160.742V20.7135H163.36V24.0327H160.742V29.2685C160.742 29.6581 160.835 29.9386 161.022 30.11C161.209 30.2814 161.521 30.3671 161.957 30.3671H163.383Z" fill="white"/>
</svg>
