<svg width="20" height="20" viewBox="0 0 20 20" fill="none" xmlns="http://www.w3.org/2000/svg">
<path d="M17.3132 1.75725C19.6562 4.10025 19.6562 7.89925 17.3132 10.2422L10.2432 17.3132C7.89925 19.6562 4.10025 19.6562 1.75725 17.3132C-0.58575 14.9702 -0.58575 11.1712 1.75725 8.82825L8.82725 1.75725C11.1712 -0.58575 14.9702 -0.58575 17.3132 1.75725V1.75725ZM11.6572 13.0702L6.00025 7.41325L3.17125 10.2432C1.60925 11.8042 1.60925 14.3372 3.17125 15.8993C4.73325 17.4613 7.26625 17.4613 8.82825 15.8993L11.6572 13.0693V13.0702ZM15.8993 3.17125C14.3372 1.60925 11.8042 1.60925 10.2422 3.17125L7.41525 5.99925L13.0722 11.6562L15.9002 8.82825C17.4622 7.26625 17.4622 4.73325 15.9002 3.17125H15.8993Z" fill="white"/>
</svg>
