<svg width="182" height="41" viewBox="0 0 182 41" fill="none" xmlns="http://www.w3.org/2000/svg">
<path d="M14.3538 37.5C12.1805 37.5 10.1602 37.1112 8.29294 36.3335C6.45631 35.5559 4.86456 34.4792 3.5177 33.1034C2.20144 31.6977 1.23721 30.0676 0.625 28.2133L5.81349 26.015C6.63997 27.9291 7.83379 29.4395 9.39492 30.5462C10.9561 31.6229 12.7162 32.1612 14.6752 32.1612C15.7772 32.1612 16.7262 31.9967 17.522 31.6678C18.3485 31.3088 18.976 30.8303 19.4046 30.2321C19.8637 29.6339 20.0933 28.9161 20.0933 28.0787C20.0933 27.0917 19.7872 26.2841 19.175 25.656C18.5934 24.998 17.7057 24.4896 16.5119 24.1307L9.94591 22.067C7.2828 21.2594 5.2778 20.0481 3.93094 18.433C2.58408 16.8179 1.91064 14.9187 1.91064 12.7354C1.91064 10.8212 2.38511 9.13134 3.33403 7.6658C4.31357 6.20026 5.66044 5.06372 7.37463 4.25618C9.11943 3.41873 11.1091 3 13.3437 3C15.3946 3 17.2771 3.35891 18.9913 4.07672C20.7055 4.76463 22.1748 5.73667 23.3993 6.99285C24.6543 8.21912 25.5879 9.6697 26.2001 11.3446L21.0575 13.5878C20.3841 11.9129 19.374 10.6268 18.0271 9.72952C16.6802 8.80234 15.1191 8.33875 13.3437 8.33875C12.3029 8.33875 11.3846 8.51821 10.5887 8.87711C9.79286 9.20611 9.16534 9.68466 8.70619 10.3127C8.27764 10.9109 8.06336 11.6287 8.06336 12.4662C8.06336 13.3934 8.36947 14.2159 8.98168 14.9337C9.59389 15.6216 10.5275 16.1599 11.7825 16.5488L18.073 18.4779C20.7974 19.3453 22.833 20.5416 24.1798 22.067C25.5573 23.5923 26.246 25.4766 26.246 27.7198C26.246 29.6339 25.741 31.3238 24.7308 32.7893C23.7207 34.2549 22.3279 35.4064 20.5525 36.2438C18.7771 37.0813 16.7108 37.5 14.3538 37.5Z" fill="white"/>
<path d="M30.4915 36.9616V3.53836H36.736V36.9616H30.4915Z" fill="white"/>
<path d="M41.9381 36.9616V3.53836H47.9072L60.7177 20.5416H57.8709L70.4059 3.53836H76.375V36.9616H70.0845V10.4922L72.5181 11.0754L59.5239 27.9889H58.7892L46.1165 11.0754L48.1827 10.4922V36.9616H41.9381Z" fill="white"/>
<path d="M91.0376 10.6548C90.2699 10.6548 89.6145 10.5055 89.0715 10.2071C88.5285 9.90862 88.0463 9.47587 87.625 8.90881L88.5238 7.95376C88.8327 8.41139 89.1885 8.75958 89.5911 8.99834C89.9937 9.22716 90.4899 9.34156 91.0797 9.34156C91.6602 9.34156 92.1236 9.20726 92.47 8.93865C92.8258 8.67005 93.0036 8.30195 93.0036 7.83438C93.0036 7.44639 92.9194 7.13302 92.7509 6.89425C92.5823 6.65549 92.353 6.4615 92.0627 6.31227C91.7819 6.1531 91.4729 6.01382 91.1359 5.89444C90.7988 5.76511 90.4618 5.6308 90.1247 5.49153C89.7877 5.3423 89.4787 5.16323 89.1979 4.95431C88.917 4.73545 88.6876 4.45192 88.5097 4.10372C88.3412 3.75553 88.257 3.3178 88.257 2.79053C88.257 2.20357 88.388 1.70615 88.6502 1.29827C88.9217 0.880435 89.2868 0.562086 89.7456 0.34322C90.2137 0.114407 90.738 0 91.3184 0C91.9551 0 92.5262 0.134304 93.0317 0.402911C93.5373 0.66157 93.9492 1.00479 94.2676 1.43257L93.3688 2.38762C93.0785 2.02948 92.7649 1.76087 92.4279 1.5818C92.1002 1.40273 91.721 1.31319 91.2903 1.31319C90.7661 1.31319 90.3494 1.43755 90.0405 1.68626C89.7315 1.92502 89.577 2.26327 89.577 2.701C89.577 3.04919 89.6613 3.33272 89.8298 3.55159C90.0077 3.7605 90.2371 3.93957 90.518 4.0888C90.7988 4.23803 91.1078 4.3773 91.4448 4.50663C91.7912 4.62601 92.133 4.76032 92.47 4.90954C92.807 5.05877 93.116 5.24779 93.3969 5.4766C93.6777 5.70542 93.9024 6.00387 94.071 6.37196C94.2488 6.7301 94.3378 7.18276 94.3378 7.72992C94.3378 8.64517 94.0382 9.36146 93.439 9.87878C92.8492 10.3961 92.0487 10.6548 91.0376 10.6548Z" fill="white"/>
<path d="M99.1666 10.6548C98.5019 10.6548 97.9027 10.4956 97.3691 10.1772C96.8354 9.84893 96.4141 9.40623 96.1052 8.84912C95.7962 8.29201 95.6417 7.66028 95.6417 6.95394C95.6417 6.25755 95.7915 5.6308 96.0911 5.07369C96.4001 4.51658 96.812 4.07885 97.3269 3.7605C97.8512 3.4322 98.4364 3.26806 99.0824 3.26806C99.7003 3.26806 100.243 3.41728 100.711 3.71573C101.189 4.01419 101.559 4.42705 101.821 4.95431C102.092 5.48158 102.228 6.07848 102.228 6.74503C102.228 6.84451 102.223 6.95394 102.214 7.07333C102.205 7.18276 102.186 7.31209 102.158 7.46131H96.5265V6.34212H101.484L101.02 6.77487C101.02 6.29735 100.941 5.89444 100.782 5.56614C100.622 5.22789 100.398 4.96923 100.108 4.79016C99.8173 4.60114 99.4662 4.50663 99.0543 4.50663C98.6236 4.50663 98.2445 4.60612 97.9168 4.80509C97.5891 5.00405 97.3363 5.28261 97.1584 5.64075C96.9805 5.9989 96.8916 6.4217 96.8916 6.90918C96.8916 7.4066 96.9852 7.84433 97.1725 8.22237C97.3597 8.59046 97.6265 8.87896 97.9729 9.08788C98.3194 9.28685 98.7173 9.38633 99.1666 9.38633C99.5411 9.38633 99.8829 9.31669 100.192 9.17741C100.51 9.03814 100.782 8.82922 101.006 8.55066L101.821 9.4311C101.503 9.82904 101.109 10.1325 100.641 10.3414C100.182 10.5503 99.6909 10.6548 99.1666 10.6548Z" fill="white"/>
<path d="M103.887 10.5055V3.41728H105.151V10.5055H103.887ZM105.151 6.4615L104.674 6.23766C104.674 5.33235 104.87 4.61109 105.263 4.07388C105.657 3.53666 106.223 3.26806 106.963 3.26806C107.3 3.26806 107.604 3.33272 107.875 3.46205C108.147 3.58143 108.4 3.78537 108.634 4.07388L107.805 4.98416C107.665 4.82498 107.51 4.71058 107.342 4.64094C107.173 4.5713 106.977 4.53648 106.752 4.53648C106.284 4.53648 105.9 4.69565 105.6 5.014C105.301 5.33235 105.151 5.81485 105.151 6.4615Z" fill="white"/>
<path d="M111.97 10.5055L108.909 3.41728H110.313L112.771 9.40125H111.956L114.428 3.41728H115.776L112.715 10.5055H111.97Z" fill="white"/>
<path d="M117.149 10.5055V3.41728H118.413V10.5055H117.149ZM117.781 1.99963C117.547 1.99963 117.355 1.92004 117.205 1.76087C117.055 1.59175 116.98 1.38283 116.98 1.13412C116.98 0.895358 117.055 0.69639 117.205 0.537215C117.355 0.368091 117.547 0.28353 117.781 0.28353C118.015 0.28353 118.207 0.368091 118.356 0.537215C118.506 0.69639 118.581 0.895358 118.581 1.13412C118.581 1.38283 118.506 1.59175 118.356 1.76087C118.207 1.92004 118.015 1.99963 117.781 1.99963Z" fill="white"/>
<path d="M123.603 10.6548C122.948 10.6548 122.354 10.4906 121.82 10.1623C121.296 9.83401 120.879 9.39131 120.57 8.83419C120.27 8.26713 120.121 7.64038 120.121 6.95394C120.121 6.25755 120.27 5.6308 120.57 5.07369C120.879 4.51658 121.296 4.07885 121.82 3.7605C122.354 3.4322 122.948 3.26806 123.603 3.26806C124.118 3.26806 124.596 3.37251 125.036 3.58143C125.476 3.7804 125.855 4.07388 126.173 4.46186L125.331 5.35722C125.125 5.09856 124.872 4.90457 124.572 4.77524C124.282 4.63596 123.959 4.56632 123.603 4.56632C123.182 4.56632 122.808 4.67078 122.48 4.8797C122.152 5.07867 121.895 5.35722 121.708 5.71537C121.52 6.07351 121.427 6.48637 121.427 6.95394C121.427 7.42152 121.52 7.83438 121.708 8.19252C121.895 8.55066 122.152 8.83419 122.48 9.04311C122.808 9.25203 123.182 9.35649 123.603 9.35649C123.959 9.35649 124.282 9.29182 124.572 9.16249C124.872 9.02321 125.13 8.82425 125.345 8.56559L126.173 9.46094C125.864 9.83898 125.485 10.1325 125.036 10.3414C124.596 10.5503 124.118 10.6548 123.603 10.6548ZM123.154 13.6244C122.826 13.6244 122.531 13.5746 122.269 13.4751C122.007 13.3856 121.754 13.2563 121.511 13.0871L122.087 12.3559C122.199 12.4753 122.335 12.5698 122.494 12.6395C122.663 12.7091 122.854 12.7439 123.07 12.7439C123.351 12.7439 123.557 12.6992 123.688 12.6096C123.819 12.5201 123.884 12.4057 123.884 12.2664C123.884 12.1271 123.819 12.0077 123.688 11.9083C123.557 11.8088 123.36 11.759 123.098 11.759H122.48L122.915 10.3115H123.87L123.547 11.386L123.084 10.9831C123.655 10.9632 124.109 11.0776 124.446 11.3263C124.792 11.5849 124.966 11.9083 124.966 12.2962C124.966 12.6842 124.802 13.0026 124.474 13.2513C124.146 13.5 123.706 13.6244 123.154 13.6244Z" fill="white"/>
<path d="M130.618 10.6548C129.963 10.6548 129.373 10.4906 128.849 10.1623C128.324 9.83401 127.908 9.39131 127.599 8.83419C127.29 8.26713 127.135 7.63541 127.135 6.93902C127.135 6.25258 127.29 5.63578 127.599 5.08862C127.908 4.5315 128.324 4.0888 128.849 3.7605C129.373 3.4322 129.963 3.26806 130.618 3.26806C131.264 3.26806 131.849 3.4322 132.374 3.7605C132.907 4.07885 133.328 4.51658 133.637 5.07369C133.946 5.6308 134.101 6.25258 134.101 6.93902C134.101 7.63541 133.946 8.26713 133.637 8.83419C133.328 9.39131 132.907 9.83401 132.374 10.1623C131.849 10.4906 131.264 10.6548 130.618 10.6548ZM130.618 9.35649C131.039 9.35649 131.414 9.25203 131.742 9.04311C132.069 8.83419 132.327 8.55066 132.514 8.19252C132.701 7.82443 132.795 7.4066 132.795 6.93902C132.795 6.48139 132.697 6.07351 132.5 5.71537C132.313 5.35722 132.055 5.07867 131.728 4.8797C131.409 4.67078 131.039 4.56632 130.618 4.56632C130.197 4.56632 129.822 4.67078 129.495 4.8797C129.167 5.07867 128.909 5.35722 128.722 5.71537C128.535 6.07351 128.441 6.48139 128.441 6.93902C128.441 7.4066 128.535 7.82443 128.722 8.19252C128.909 8.55066 129.167 8.83419 129.495 9.04311C129.822 9.25203 130.197 9.35649 130.618 9.35649Z" fill="white"/>
<path d="M88.3272 25.4282V15.0719H89.6473V25.4282H88.3272Z" fill="white"/>
<path d="M96.7225 25.4282V21.2946C96.7225 20.7574 96.5634 20.3147 96.2451 19.9665C95.9267 19.6183 95.5148 19.4442 95.0092 19.4442C94.6722 19.4442 94.3726 19.5238 94.1104 19.6829C93.8483 19.8421 93.6423 20.061 93.4925 20.3395C93.3427 20.6181 93.2678 20.9364 93.2678 21.2946L92.7482 20.9812C92.7482 20.444 92.8606 19.9665 93.0853 19.5486C93.31 19.1308 93.6236 18.8025 94.0262 18.5637C94.4288 18.315 94.8828 18.1907 95.3884 18.1907C95.894 18.1907 96.3387 18.325 96.7225 18.5936C97.1157 18.8622 97.4247 19.2154 97.6494 19.6531C97.8741 20.0809 97.9864 20.5385 97.9864 21.026V25.4282H96.7225ZM92.0039 25.4282V18.3399H93.2678V25.4282H92.0039Z" fill="white"/>
<path d="M100.921 25.4282V15.3703H102.185V25.4282H100.921ZM99.2783 19.5636V18.3399H103.828V19.5636H99.2783Z" fill="white"/>
<path d="M108.231 25.5774C107.567 25.5774 106.967 25.4182 106.434 25.0999C105.9 24.7716 105.479 24.3289 105.17 23.7717C104.861 23.2146 104.706 22.5829 104.706 21.8766C104.706 21.1802 104.856 20.5534 105.156 19.9963C105.465 19.4392 105.877 19.0015 106.392 18.6831C106.916 18.3548 107.501 18.1907 108.147 18.1907C108.765 18.1907 109.308 18.3399 109.776 18.6384C110.254 18.9368 110.623 19.3497 110.885 19.8769C111.157 20.4042 111.293 21.0011 111.293 21.6677C111.293 21.7671 111.288 21.8766 111.279 21.9959C111.269 22.1054 111.251 22.2347 111.223 22.3839H105.591V21.2647H110.548L110.085 21.6975C110.085 21.22 110.005 20.8171 109.846 20.4888C109.687 20.1505 109.462 19.8919 109.172 19.7128C108.882 19.5238 108.531 19.4293 108.119 19.4293C107.688 19.4293 107.309 19.5287 106.981 19.7277C106.654 19.9267 106.401 20.2052 106.223 20.5634C106.045 20.9215 105.956 21.3443 105.956 21.8318C105.956 22.3292 106.05 22.767 106.237 23.145C106.424 23.5131 106.691 23.8016 107.038 24.0105C107.384 24.2095 107.782 24.309 108.231 24.309C108.606 24.309 108.947 24.2393 109.256 24.1C109.575 23.9608 109.846 23.7518 110.071 23.4733L110.885 24.3537C110.567 24.7517 110.174 25.0551 109.706 25.264C109.247 25.4729 108.756 25.5774 108.231 25.5774Z" fill="white"/>
<path d="M112.952 25.4282V14.7734H114.216V25.4282H112.952Z" fill="white"/>
<path d="M122.371 25.5774C121.753 25.5774 121.2 25.4182 120.713 25.0999C120.227 24.7716 119.838 24.3289 119.548 23.7717C119.267 23.2146 119.126 22.5879 119.126 21.8915C119.126 21.1951 119.267 20.5684 119.548 20.0112C119.838 19.4541 120.227 19.0114 120.713 18.6831C121.2 18.3548 121.753 18.1907 122.371 18.1907C122.867 18.1907 123.316 18.3051 123.719 18.5339C124.121 18.7528 124.444 19.0612 124.688 19.4591C124.94 19.8471 125.081 20.2997 125.109 20.8171V22.951C125.081 23.4584 124.945 23.911 124.702 24.309C124.458 24.7069 124.135 25.0203 123.733 25.2491C123.33 25.4679 122.876 25.5774 122.371 25.5774ZM122.581 24.309C123.002 24.309 123.368 24.2045 123.677 23.9956C123.995 23.7867 124.243 23.5031 124.421 23.145C124.599 22.7769 124.688 22.3591 124.688 21.8915C124.688 21.404 124.594 20.9812 124.407 20.6231C124.229 20.2649 123.981 19.9814 123.663 19.7725C123.354 19.5636 122.988 19.4591 122.567 19.4591C122.146 19.4591 121.776 19.5636 121.458 19.7725C121.139 19.9814 120.887 20.2699 120.699 20.638C120.521 20.9961 120.433 21.409 120.433 21.8766C120.433 22.3541 120.521 22.7769 120.699 23.145C120.887 23.5031 121.139 23.7867 121.458 23.9956C121.785 24.2045 122.16 24.309 122.581 24.309ZM125.881 25.4282H124.603V23.5181L124.842 21.787L124.603 20.0709V14.7734H125.881V25.4282Z" fill="white"/>
<path d="M131.092 25.5774C130.427 25.5774 129.828 25.4182 129.294 25.0999C128.761 24.7716 128.339 24.3289 128.03 23.7717C127.722 23.2146 127.567 22.5829 127.567 21.8766C127.567 21.1802 127.717 20.5534 128.016 19.9963C128.325 19.4392 128.737 19.0015 129.252 18.6831C129.777 18.3548 130.362 18.1907 131.008 18.1907C131.626 18.1907 132.169 18.3399 132.637 18.6384C133.114 18.9368 133.484 19.3497 133.746 19.8769C134.018 20.4042 134.153 21.0011 134.153 21.6677C134.153 21.7671 134.149 21.8766 134.139 21.9959C134.13 22.1054 134.111 22.2347 134.083 22.3839H128.452V21.2647H133.409L132.946 21.6975C132.946 21.22 132.866 20.8171 132.707 20.4888C132.548 20.1505 132.323 19.8919 132.033 19.7128C131.743 19.5238 131.392 19.4293 130.98 19.4293C130.549 19.4293 130.17 19.5287 129.842 19.7277C129.514 19.9267 129.262 20.2052 129.084 20.5634C128.906 20.9215 128.817 21.3443 128.817 21.8318C128.817 22.3292 128.911 22.767 129.098 23.145C129.285 23.5131 129.552 23.8016 129.898 24.0105C130.245 24.2095 130.643 24.309 131.092 24.309C131.466 24.309 131.808 24.2393 132.117 24.1C132.435 23.9608 132.707 23.7518 132.932 23.4733L133.746 24.3537C133.428 24.7517 133.035 25.0551 132.567 25.264C132.108 25.4729 131.616 25.5774 131.092 25.5774Z" fill="white"/>
<path d="M88.3272 40.3508V29.9945H89.254L93.3828 37.2021H92.7509L96.8796 29.9945H97.8065V40.3508H96.4864V32.4567L96.7954 32.5462L93.5373 38.2318H92.6104L89.3523 32.5462L89.6473 32.4567V40.3508H88.3272Z" fill="white"/>
<path d="M103.254 40.5C102.589 40.5 101.99 40.3408 101.456 40.0225C100.922 39.6942 100.501 39.2515 100.192 38.6944C99.8831 38.1373 99.7286 37.5055 99.7286 36.7992C99.7286 36.1028 99.8784 35.4761 100.178 34.9189C100.487 34.3618 100.899 33.9241 101.414 33.6058C101.938 33.2775 102.523 33.1133 103.169 33.1133C103.787 33.1133 104.33 33.2625 104.798 33.561C105.276 33.8594 105.646 34.2723 105.908 34.7996C106.179 35.3268 106.315 35.9237 106.315 36.5903C106.315 36.6898 106.31 36.7992 106.301 36.9186C106.292 37.028 106.273 37.1573 106.245 37.3066H100.613V36.1874H105.571L105.107 36.6201C105.107 36.1426 105.028 35.7397 104.869 35.4114C104.709 35.0731 104.485 34.8145 104.194 34.6354C103.904 34.4464 103.553 34.3519 103.141 34.3519C102.71 34.3519 102.331 34.4514 102.004 34.6503C101.676 34.8493 101.423 35.1279 101.245 35.486C101.067 35.8441 100.978 36.267 100.978 36.7544C100.978 37.2518 101.072 37.6896 101.259 38.0676C101.447 38.4357 101.713 38.7242 102.06 38.9331C102.406 39.1321 102.804 39.2316 103.254 39.2316C103.628 39.2316 103.97 39.1619 104.279 39.0227C104.597 38.8834 104.869 38.6745 105.093 38.3959L105.908 39.2763C105.589 39.6743 105.196 39.9777 104.728 40.1866C104.269 40.3955 103.778 40.5 103.254 40.5Z" fill="white"/>
<path d="M110.797 40.5C110.179 40.5 109.626 40.3408 109.14 40.0225C108.653 39.6942 108.264 39.2515 107.974 38.6944C107.693 38.1373 107.553 37.5105 107.553 36.8141C107.553 36.1177 107.693 35.491 107.974 34.9339C108.264 34.3768 108.653 33.934 109.14 33.6058C109.626 33.2775 110.179 33.1133 110.797 33.1133C111.293 33.1133 111.742 33.2277 112.145 33.4565C112.547 33.6754 112.87 33.9838 113.114 34.3817C113.367 34.7697 113.507 35.2224 113.535 35.7397V37.8736C113.507 38.381 113.371 38.8336 113.128 39.2316C112.885 39.6295 112.562 39.9429 112.159 40.1717C111.756 40.3906 111.302 40.5 110.797 40.5ZM111.007 39.2316C111.429 39.2316 111.794 39.1271 112.103 38.9182C112.421 38.7093 112.669 38.4258 112.847 38.0676C113.025 37.6995 113.114 37.2817 113.114 36.8141C113.114 36.3266 113.02 35.9038 112.833 35.5457C112.655 35.1875 112.407 34.904 112.089 34.6951C111.78 34.4862 111.415 34.3817 110.993 34.3817C110.572 34.3817 110.202 34.4862 109.884 34.6951C109.566 34.904 109.313 35.1925 109.126 35.5606C108.948 35.9188 108.859 36.3316 108.859 36.7992C108.859 37.2767 108.948 37.6995 109.126 38.0676C109.313 38.4258 109.566 38.7093 109.884 38.9182C110.212 39.1271 110.586 39.2316 111.007 39.2316ZM114.308 40.3508H113.03V38.4407L113.268 36.7097L113.03 34.9936V29.696H114.308V40.3508Z" fill="white"/>
<path d="M116.443 40.3508V33.2625H117.707V40.3508H116.443ZM117.075 31.8449C116.841 31.8449 116.649 31.7653 116.499 31.6061C116.349 31.437 116.274 31.2281 116.274 30.9794C116.274 30.7406 116.349 30.5416 116.499 30.3825C116.649 30.2133 116.841 30.1288 117.075 30.1288C117.309 30.1288 117.501 30.2133 117.65 30.3825C117.8 30.5416 117.875 30.7406 117.875 30.9794C117.875 31.2281 117.8 31.437 117.65 31.6061C117.501 31.7653 117.309 31.8449 117.075 31.8449Z" fill="white"/>
<path d="M122.897 40.5C122.242 40.5 121.648 40.3359 121.114 40.0076C120.59 39.6793 120.173 39.2366 119.864 38.6794C119.564 38.1124 119.415 37.4856 119.415 36.7992C119.415 36.1028 119.564 35.4761 119.864 34.9189C120.173 34.3618 120.59 33.9241 121.114 33.6058C121.648 33.2775 122.242 33.1133 122.897 33.1133C123.412 33.1133 123.89 33.2178 124.33 33.4267C124.77 33.6256 125.149 33.9191 125.467 34.3071L124.625 35.2025C124.419 34.9438 124.166 34.7498 123.866 34.6205C123.576 34.4812 123.253 34.4116 122.897 34.4116C122.476 34.4116 122.102 34.516 121.774 34.7249C121.446 34.9239 121.189 35.2025 121.002 35.5606C120.814 35.9188 120.721 36.3316 120.721 36.7992C120.721 37.2668 120.814 37.6796 121.002 38.0378C121.189 38.3959 121.446 38.6794 121.774 38.8884C122.102 39.0973 122.476 39.2017 122.897 39.2017C123.253 39.2017 123.576 39.1371 123.866 39.0077C124.166 38.8685 124.424 38.6695 124.639 38.4108L125.467 39.3062C125.158 39.6842 124.779 39.9777 124.33 40.1866C123.89 40.3955 123.412 40.5 122.897 40.5Z" fill="white"/>
<path d="M129.701 40.5C129.093 40.5 128.54 40.3408 128.044 40.0225C127.548 39.6942 127.155 39.2515 126.865 38.6944C126.584 38.1373 126.443 37.5105 126.443 36.8141C126.443 36.1177 126.584 35.491 126.865 34.9339C127.155 34.3768 127.543 33.934 128.03 33.6058C128.526 33.2775 129.084 33.1133 129.701 33.1133C130.207 33.1133 130.656 33.2277 131.05 33.4565C131.452 33.6754 131.775 33.9838 132.019 34.3817C132.262 34.7697 132.398 35.2224 132.426 35.7397V37.8736C132.398 38.381 132.262 38.8336 132.019 39.2316C131.785 39.6295 131.466 39.9429 131.064 40.1717C130.67 40.3906 130.216 40.5 129.701 40.5ZM129.912 39.2316C130.539 39.2316 131.045 39.0077 131.429 38.5601C131.813 38.1024 132.005 37.5205 132.005 36.8141C132.005 36.3266 131.916 35.9038 131.738 35.5457C131.569 35.1776 131.326 34.8941 131.007 34.6951C130.689 34.4862 130.319 34.3817 129.898 34.3817C129.477 34.3817 129.102 34.4862 128.775 34.6951C128.456 34.904 128.203 35.1925 128.016 35.5606C127.838 35.9188 127.749 36.3316 127.749 36.7992C127.749 37.2767 127.838 37.6995 128.016 38.0676C128.203 38.4258 128.461 38.7093 128.789 38.9182C129.116 39.1271 129.491 39.2316 129.912 39.2316ZM131.92 40.3508V38.4407L132.159 36.7097L131.92 34.9936V33.2625H133.198V40.3508H131.92Z" fill="white"/>
<path d="M135.319 40.3508V33.2625H136.583V40.3508H135.319ZM139.827 40.3508V36.068C139.827 35.5407 139.673 35.1279 139.364 34.8294C139.064 34.521 138.685 34.3668 138.226 34.3668C137.917 34.3668 137.641 34.4364 137.398 34.5757C137.154 34.715 136.958 34.909 136.808 35.1577C136.658 35.4064 136.583 35.7049 136.583 36.0531L136.064 35.7845C136.064 35.2472 136.171 34.7797 136.387 34.3817C136.611 33.9838 136.916 33.6754 137.299 33.4565C137.683 33.2277 138.114 33.1133 138.591 33.1133C139.059 33.1133 139.481 33.2227 139.855 33.4416C140.239 33.6605 140.539 33.9689 140.754 34.3668C140.979 34.7647 141.091 35.2373 141.091 35.7845V40.3508H139.827ZM144.335 40.3508V36.068C144.335 35.5407 144.181 35.1279 143.872 34.8294C143.572 34.521 143.198 34.3668 142.748 34.3668C142.439 34.3668 142.158 34.4364 141.906 34.5757C141.662 34.715 141.466 34.909 141.316 35.1577C141.166 35.4064 141.091 35.7049 141.091 36.0531L140.375 35.7845C140.403 35.2373 140.539 34.7697 140.782 34.3817C141.035 33.9838 141.358 33.6754 141.751 33.4565C142.144 33.2277 142.575 33.1133 143.043 33.1133C143.53 33.1133 143.965 33.2227 144.349 33.4416C144.733 33.6605 145.037 33.9689 145.262 34.3668C145.496 34.7647 145.613 35.2423 145.613 35.7994V40.3508H144.335Z" fill="white"/>
<path d="M150.703 40.5C150.039 40.5 149.44 40.3408 148.906 40.0225C148.372 39.6942 147.951 39.2515 147.642 38.6944C147.333 38.1373 147.179 37.5055 147.179 36.7992C147.179 36.1028 147.328 35.4761 147.628 34.9189C147.937 34.3618 148.349 33.9241 148.864 33.6058C149.388 33.2775 149.973 33.1133 150.619 33.1133C151.237 33.1133 151.78 33.2625 152.248 33.561C152.726 33.8594 153.095 34.2723 153.358 34.7996C153.629 35.3268 153.765 35.9237 153.765 36.5903C153.765 36.6898 153.76 36.7992 153.751 36.9186C153.741 37.028 153.723 37.1573 153.695 37.3066H148.063V36.1874H153.021L152.557 36.6201C152.557 36.1426 152.478 35.7397 152.318 35.4114C152.159 35.0731 151.935 34.8145 151.644 34.6354C151.354 34.4464 151.003 34.3519 150.591 34.3519C150.16 34.3519 149.781 34.4514 149.454 34.6503C149.126 34.8493 148.873 35.1279 148.695 35.486C148.517 35.8441 148.428 36.267 148.428 36.7544C148.428 37.2518 148.522 37.6896 148.709 38.0676C148.896 38.4357 149.163 38.7242 149.51 38.9331C149.856 39.1321 150.254 39.2316 150.703 39.2316C151.078 39.2316 151.42 39.1619 151.729 39.0227C152.047 38.8834 152.318 38.6745 152.543 38.3959L153.358 39.2763C153.039 39.6743 152.646 39.9777 152.178 40.1866C151.719 40.3955 151.228 40.5 150.703 40.5Z" fill="white"/>
<path d="M160.142 40.3508V36.2172C160.142 35.68 159.983 35.2373 159.665 34.8891C159.347 34.5409 158.935 34.3668 158.429 34.3668C158.092 34.3668 157.793 34.4464 157.53 34.6056C157.268 34.7647 157.062 34.9836 156.912 35.2622C156.763 35.5407 156.688 35.8591 156.688 36.2172L156.168 35.9038C156.168 35.3666 156.281 34.8891 156.505 34.4713C156.73 34.0534 157.044 33.7251 157.446 33.4864C157.849 33.2377 158.303 33.1133 158.808 33.1133C159.314 33.1133 159.759 33.2476 160.142 33.5162C160.536 33.7848 160.845 34.138 161.069 34.5757C161.294 35.0035 161.406 35.4611 161.406 35.9486V40.3508H160.142ZM155.424 40.3508V33.2625H156.688V40.3508H155.424Z" fill="white"/>
<path d="M164.341 40.3508V30.2929H165.605V40.3508H164.341ZM162.698 34.4862V33.2625H167.248V34.4862H162.698Z" fill="white"/>
<path d="M171.609 40.5C170.954 40.5 170.364 40.3359 169.84 40.0076C169.315 39.6793 168.899 39.2366 168.59 38.6794C168.281 38.1124 168.126 37.4807 168.126 36.7843C168.126 36.0978 168.281 35.481 168.59 34.9339C168.899 34.3768 169.315 33.934 169.84 33.6058C170.364 33.2775 170.954 33.1133 171.609 33.1133C172.255 33.1133 172.84 33.2775 173.365 33.6058C173.898 33.9241 174.319 34.3618 174.628 34.9189C174.937 35.4761 175.092 36.0978 175.092 36.7843C175.092 37.4807 174.937 38.1124 174.628 38.6794C174.319 39.2366 173.898 39.6793 173.365 40.0076C172.84 40.3359 172.255 40.5 171.609 40.5ZM171.609 39.2017C172.03 39.2017 172.405 39.0973 172.733 38.8884C173.06 38.6794 173.318 38.3959 173.505 38.0378C173.692 37.6697 173.786 37.2518 173.786 36.7843C173.786 36.3266 173.688 35.9188 173.491 35.5606C173.304 35.2025 173.046 34.9239 172.719 34.7249C172.4 34.516 172.03 34.4116 171.609 34.4116C171.188 34.4116 170.813 34.516 170.486 34.7249C170.158 34.9239 169.9 35.2025 169.713 35.5606C169.526 35.9188 169.432 36.3266 169.432 36.7843C169.432 37.2518 169.526 37.6697 169.713 38.0378C169.9 38.3959 170.158 38.6794 170.486 38.8884C170.813 39.0973 171.188 39.2017 171.609 39.2017Z" fill="white"/>
<path d="M178.917 40.5C178.543 40.5 178.187 40.4503 177.85 40.3508C177.522 40.2413 177.218 40.0921 176.937 39.9031C176.656 39.7041 176.413 39.4703 176.207 39.2017L177.022 38.3362C177.265 38.6546 177.546 38.8933 177.864 39.0525C178.182 39.2017 178.538 39.2763 178.931 39.2763C179.325 39.2763 179.629 39.2067 179.844 39.0674C180.06 38.9182 180.167 38.7143 180.167 38.4556C180.167 38.1969 180.078 37.998 179.9 37.8587C179.732 37.7095 179.512 37.5901 179.24 37.5006C178.969 37.4011 178.679 37.3066 178.37 37.217C178.07 37.1175 177.785 36.9932 177.513 36.844C177.242 36.6947 177.017 36.4908 176.839 36.2321C176.67 35.9735 176.586 35.6303 176.586 35.2025C176.586 34.7747 176.684 34.4066 176.881 34.0982C177.078 33.7798 177.349 33.5361 177.696 33.367C178.051 33.1979 178.477 33.1133 178.974 33.1133C179.498 33.1133 179.961 33.2128 180.364 33.4118C180.776 33.6008 181.113 33.8893 181.375 34.2773L180.56 35.1428C180.373 34.8841 180.139 34.6852 179.858 34.5459C179.587 34.4066 179.278 34.337 178.931 34.337C178.566 34.337 178.285 34.4066 178.089 34.5459C177.902 34.6752 177.808 34.8593 177.808 35.098C177.808 35.3368 177.892 35.5208 178.061 35.6502C178.229 35.7795 178.449 35.8889 178.721 35.9785C179.002 36.068 179.292 36.1625 179.591 36.262C179.891 36.3515 180.177 36.4759 180.448 36.635C180.72 36.7942 180.94 37.0081 181.108 37.2767C181.286 37.5453 181.375 37.8985 181.375 38.3362C181.375 39.0028 181.15 39.53 180.701 39.918C180.261 40.306 179.666 40.5 178.917 40.5Z" fill="white"/>
</svg>
